<?xml version="1.0" encoding="utf-8"?><svg viewBox="0 0 20 21" xmlns="http://www.w3.org/2000/svg" xmlns:xlink="http://www.w3.org/1999/xlink"><style>:root>svg{display:none}:root>svg:target{display:block}</style><svg version="1.2" baseProfile="tiny-ps" viewBox="0 0 19 17" id="basket" xmlns="http://www.w3.org/2000/svg"><style>.ashp0{fill:#243f4d}</style><g id="aBanner"><g id="aHeader"><g id="aGroup 2"><path id="aShape 16" fill-rule="evenodd" class="ashp0" d="M5.53 16.98a2.078 2.078 0 01-1.92-2.87 2.07 2.07 0 011.92-1.28c.55 0 1.07.21 1.46.6.4.4.61.92.61 1.47 0 .84-.5 1.59-1.27 1.92-.26.11-.53.16-.8.16zm0-2.97a.894.894 0 00-.63 1.52.894.894 0 001.52-.63c0-.24-.1-.46-.26-.63a.92.92 0 00-.63-.26zm8.39 2.97c-.54 0-1.07-.21-1.46-.61-.6-.59-.78-1.48-.46-2.26a2.08 2.08 0 011.92-1.28c.54-.04 1.08.22 1.47.6.39.4.6.92.6 1.47.01.84-.49 1.59-1.27 1.92-.26.11-.53.16-.8.16zm0-2.97c-.33.04-.68.22-.82.55-.14.34-.06.72.19.97.26.26.64.33.97.19.34-.14.55-.46.55-.82 0-.24-.09-.46-.26-.63a.92.92 0 00-.63-.26zm-11.27.17c-.09 0-.17-.02-.25-.06a.584.584 0 01-.29-.78c.58-1.24 1.63-1.98 3.05-2.16L4.11 5.79c-.06-.32.14-.63.47-.69.32-.07.63.15.69.47l1.09 5.57h9.43l1.8-6.77H4.29C2.16 4.37.32 2.79.01.68-.04.36.18.05.5.01c.32-.06.63.17.68.5a3.16 3.16 0 003.13 2.68h14.05c.19 0 .36.08.47.23.12.15.15.34.11.51l-2.13 7.96c-.07.26-.3.44-.57.44H5.88h-.02c-1.33 0-2.2.49-2.68 1.51-.1.21-.31.34-.53.34z"/></g></g></g></svg><svg version="1.2" baseProfile="tiny-ps" viewBox="0 0 18 17" id="heart" xmlns="http://www.w3.org/2000/svg"><style>.bshp0{fill:#243f4d}</style><g id="bBanner"><g id="bHeader"><g id="bGroup 2"><path id="bShape 55" class="bshp0" d="M8.91 16.24c-.09 0-.19-.01-.28-.05-.35-.15-8.65-3.75-8.65-10.76C.07 2.78 2.19.72 4.8.72c1.74 0 3.27.92 4.11 2.31A4.809 4.809 0 0113.03.72c2.6 0 4.72 2.06 4.81 4.68 0 7.04-8.29 10.64-8.65 10.79-.09.04-.18.05-.28.05zM4.8 2.11c-1.85 0-3.34 1.47-3.41 3.34 0 5.41 6.13 8.66 7.52 9.34 1.4-.68 7.52-3.93 7.52-9.36-.06-1.85-1.56-3.32-3.4-3.32-1.85 0-3.35 1.47-3.41 3.34-.02.38-.33.67-.71.67a.69.69 0 01-.7-.67C8.14 3.58 6.65 2.11 4.8 2.11z"/></g></g></g></svg><svg version="1.2" baseProfile="tiny-ps" viewBox="0 0 20 21" id="menu" xmlns="http://www.w3.org/2000/svg"><style>.cshp0{fill:#fff}</style><g id="cBanner"><g id="cHeader"><path id="cEllipse 32" class="cshp0" d="M2.15 4.88A2.145 2.145 0 112.14.59a2.145 2.145 0 01.01 4.29zm0 7.87a2.145 2.145 0 11-.01-4.29 2.145 2.145 0 01.01 4.29zm0 7.87a2.145 2.145 0 11-.01-4.29 2.145 2.145 0 01.01 4.29zm7.86-15.74a2.145 2.145 0 11.01-4.29 2.145 2.145 0 01-.01 4.29zm0 7.87a2.145 2.145 0 11.01-4.29 2.145 2.145 0 01-.01 4.29zm0 7.87a2.145 2.145 0 11.01-4.29 2.145 2.145 0 01-.01 4.29zm7.87-15.74a2.145 2.145 0 11.01-4.29 2.145 2.145 0 01-.01 4.29zm0 7.87a2.145 2.145 0 11.01-4.29 2.145 2.145 0 01-.01 4.29zm0 7.87a2.145 2.145 0 11.01-4.29 2.145 2.145 0 01-.01 4.29z"/></g></g></svg><svg version="1.2" baseProfile="tiny-ps" viewBox="0 0 16 16" id="search" xmlns="http://www.w3.org/2000/svg"><style>.dshp0{fill:#243f4d}</style><g id="dBanner"><g id="dHeader"><path id="dicon" class="dshp0" d="M3.7 6.08c.36-.07.68.13.75.48.09.58.35 1.07.78 1.49.42.39.94.68 1.49.78.33.06.55.39.49.74a.64.64 0 01-.72.51c-.81-.16-1.55-.54-2.14-1.13-.58-.58-.97-1.32-1.13-2.13-.07-.36.12-.68.48-.74zM6.98 0c3.47 0 6.28 2.8 6.28 6.25 0 .93-.2 1.81-.57 2.61l2.34 2.03c1.7 1.75.74 3.27.29 3.72-.42.45-1.99 1.41-3.73-.29l-2.06-2.35c-.78.34-1.64.54-2.55.54C3.51 12.51.7 9.71.7 6.25S3.51 0 6.98 0zm5.55 13.51c.29.33 1.12.87 1.88.23.21-.18.63-1.07-.23-1.87l-2.16-1.88c-.39.51-.84.96-1.37 1.34l1.88 2.18zM6.98 11.2c2.74 0 4.97-2.22 4.97-4.95S9.72 1.31 6.98 1.31c-2.74 0-4.97 2.21-4.97 4.94 0 2.73 2.23 4.95 4.97 4.95z"/></g></g></svg></svg>